# xmcd CD database file
#
# Track frame offsets:
#	150
#	40267
#	80895
#	152652
#
# Disc length: 2572 seconds
#
# Revision: 0
# Processed by: cddbd v1.5.2PL0 Copyright (c) Steve Scherf et al.
# Submitted via: CDex 1.51
#
DISCID=2a0a0a04
DTITLE=Various Artist - Meditando com Hinduísmo
DYEAR=1900
DGENRE=New Age
TTITLE0=Meditação - Texto: Osho/Voz: Mirna Grzich/Música: Tradicional Alap;Intérpretes: G.S. Sachdev e Swapan Chaudhuri - Album: Amar Sangit
TTITLE1=Raga Yaman Kalyan - interpretes: Krucis e Edgar Silva (tabla) album: Os Sons das Esferas
TTITLE2=Bij Mantras, os mantras sementes dos sete chacras - intérprete: Meeta Ravindra
TTITLE3=Tradicional Alap - bonus track - Intérpretes: G.S. Sachdev e Swapan Chaudhuri - Album: Amar Sangit
EXTD=
EXTT0=
EXTT1=
EXTT2=
EXTT3=
PLAYORDER=
